<svg width="51" height="46" viewBox="0 0 51 46" fill="none" xmlns="http://www.w3.org/2000/svg">
<path d="M19.6531 15.3363H3.71546C1.66349 15.3363 0 13.8269 0 11.9761V3.35116C0 1.50039 1.66349 0 3.71546 0H19.6531C21.7051 0 23.3686 1.50039 23.3686 3.35116V11.9761C23.3785 13.8269 21.7051 15.3363 19.6531 15.3363ZM3.71546 2.87499C3.42659 2.87499 3.18753 3.09062 3.18753 3.35116V11.9761C3.18753 12.2367 3.42659 12.4523 3.71546 12.4523H19.6531C19.942 12.4523 20.181 12.2367 20.181 11.9761V3.35116C20.181 3.09062 19.942 2.87499 19.6531 2.87499H3.71546Z" fill="#455096" fill-opacity="0.6"/>
<path d="M19.6531 45.9999H3.71546C1.66349 45.9999 0 44.4995 0 42.6487V22.5238C0 20.673 1.66349 19.1726 3.71546 19.1726H19.6531C21.7051 19.1726 23.3686 20.673 23.3686 22.5238V42.6487C23.3785 44.4995 21.7051 45.9999 19.6531 45.9999ZM3.71546 22.0386C3.42659 22.0386 3.18753 22.2542 3.18753 22.5148V42.6397C3.18753 42.9003 3.42659 43.1159 3.71546 43.1159H19.6531C19.942 43.1159 20.181 42.9003 20.181 42.6397V22.5148C20.181 22.2542 19.942 22.0386 19.6531 22.0386H3.71546Z" fill="#455096" fill-opacity="0.6"/>
<path d="M47.2842 45.9999H31.3466C29.2946 45.9999 27.6311 44.4995 27.6311 42.6488V34.0238C27.6311 32.173 29.2946 30.6726 31.3466 30.6726H47.2842C49.3362 30.6726 50.9997 32.173 50.9997 34.0238V42.6488C50.9997 44.4995 49.3362 45.9999 47.2842 45.9999ZM31.3466 33.5386C31.0577 33.5386 30.8186 33.7542 30.8186 34.0148V42.6398C30.8186 42.9003 31.0577 43.116 31.3466 43.116H47.2842C47.5731 43.116 47.8121 42.9003 47.8121 42.6398V34.0148C47.8121 33.7542 47.5731 33.5386 47.2842 33.5386H31.3466Z" fill="#455096" fill-opacity="0.6"/>
<path d="M47.2842 26.8361H31.3466C29.2946 26.8361 27.6311 25.3357 27.6311 23.4849V3.35999C27.6311 1.50922 29.2946 0.0088292 31.3466 0.0088292H47.2842C49.3362 -0.00015515 50.9997 1.50023 50.9997 3.35101V23.476C50.9997 25.3267 49.3362 26.8361 47.2842 26.8361ZM31.3466 2.87484C31.0577 2.87484 30.8186 3.09046 30.8186 3.35101V23.476C30.8186 23.7365 31.0577 23.9521 31.3466 23.9521H47.2842C47.5731 23.9521 47.8121 23.7365 47.8121 23.476V3.35101C47.8121 3.09046 47.5731 2.87484 47.2842 2.87484H31.3466Z" fill="#455096" fill-opacity="0.6"/>
</svg>
