<svg width="17" height="20" viewBox="0 0 17 20" fill="none" xmlns="http://www.w3.org/2000/svg">
<path d="M8.36133 19.5C9.46133 19.5 10.3613 18.6 10.3613 17.5H6.36133C6.36133 18.6 7.26133 19.5 8.36133 19.5ZM14.3613 13.5V8.5C14.3613 5.43 12.7313 2.86 9.86133 2.18V1.5C9.86133 0.67 9.19133 0 8.36133 0C7.53133 0 6.86133 0.67 6.86133 1.5V2.18C4.00133 2.86 2.36133 5.42 2.36133 8.5V13.5L0.361328 15.5V16.5H16.3613V15.5L14.3613 13.5ZM12.3613 14.5H4.36133V8.5C4.36133 6.02 5.87133 4 8.36133 4C10.8513 4 12.3613 6.02 12.3613 8.5V14.5Z" fill="#717DAB"/>
</svg>
