<svg width="18" height="17" viewBox="0 0 18 17" fill="none" xmlns="http://www.w3.org/2000/svg">
<path d="M9 2.125C10.2375 2.125 11.25 3.08125 11.25 4.25C11.25 5.41875 10.2375 6.375 9 6.375C7.7625 6.375 6.75 5.41875 6.75 4.25C6.75 3.08125 7.7625 2.125 9 2.125ZM9 11.6875C12.0375 11.6875 15.525 13.0581 15.75 13.8125V14.875H2.25V13.8231C2.475 13.0581 5.9625 11.6875 9 11.6875ZM9 0C6.51375 0 4.5 1.90188 4.5 4.25C4.5 6.59812 6.51375 8.5 9 8.5C11.4862 8.5 13.5 6.59812 13.5 4.25C13.5 1.90188 11.4862 0 9 0ZM9 9.5625C5.99625 9.5625 0 10.9862 0 13.8125V17H18V13.8125C18 10.9862 12.0037 9.5625 9 9.5625Z" fill="#717DAB"/>
</svg>
